<?xml version="1.0" encoding="UTF-8"?>
<svg xmlns="http://www.w3.org/2000/svg" xmlns:xlink="http://www.w3.org/1999/xlink" width="32px" height="32px" viewBox="0 0 32 31" version="1.1">
<g id="surface1">
<path style=" stroke:none;fill-rule:nonzero;fill:rgb(0%,0%,0%);fill-opacity:1;" d="M 25.542969 23.570312 L 27.304688 23.582031 C 27.703125 23.585938 27.96875 23.953125 28 24.304688 C 28.027344 24.640625 27.765625 25.046875 27.382812 25.085938 C 26.996094 25.121094 26.636719 25.097656 26.21875 25.113281 L 26.390625 27.738281 C 26.402344 27.875 26.332031 28.042969 26.171875 28.042969 L 23.175781 28.042969 C 23.097656 28.042969 22.925781 27.96875 22.925781 27.90625 L 22.878906 26.214844 C 22.03125 26.890625 21.546875 26.570312 20.5625 26.648438 L 16.199219 30.902344 C 16.0625 31.035156 15.90625 31.007812 15.78125 30.882812 L 11.4375 26.644531 L 10.054688 26.636719 C 9.703125 26.636719 9.410156 26.414062 9.121094 26.222656 C 9.089844 26.757812 9.078125 27.277344 9.078125 27.828125 C 9.078125 27.910156 8.984375 28.042969 8.886719 28.042969 L 5.835938 28.042969 C 5.703125 28.042969 5.605469 27.894531 5.613281 27.78125 L 5.792969 25.109375 L 4.667969 25.089844 C 4.222656 25.078125 3.980469 24.632812 4.019531 24.253906 C 4.058594 23.847656 4.390625 23.570312 4.835938 23.566406 L 6.414062 23.5625 C 6.628906 23.5625 6.785156 23.472656 6.8125 23.273438 C 6.832031 23.113281 6.710938 22.882812 6.476562 22.882812 L 3.757812 22.859375 C 3.136719 22.855469 2.65625 22.449219 2.34375 21.96875 C 1.921875 21.960938 1.554688 21.84375 1.230469 21.601562 C 0.578125 21.109375 0.144531 21.554688 0.0117188 21.28125 C -0.015625 21.222656 0.00390625 21.085938 0.0664062 21.035156 C 0.535156 20.636719 1.128906 20.53125 1.722656 20.679688 C 2.628906 20.769531 2.121094 19.882812 3.558594 19.605469 L 0.789062 16.902344 C 0.722656 16.835938 0.703125 16.734375 0.769531 16.667969 L 4.464844 13.078125 L 4.46875 11.894531 C 4.46875 11.765625 4.554688 11.644531 4.703125 11.640625 L 5.609375 11.625 L 5.621094 10.945312 C 5.621094 10.894531 5.675781 10.785156 5.71875 10.753906 C 5.765625 10.71875 5.902344 10.726562 5.964844 10.746094 L 6.800781 11 L 6.8125 10.507812 L 6.5 10.488281 C 6.453125 10.488281 6.378906 10.367188 6.375 10.316406 L 6.363281 9.601562 L 5.417969 9.542969 C 4.894531 9.511719 4.425781 9.613281 4.3125 9.238281 L 3.90625 7.863281 L 2.820312 7.675781 L 1.597656 5.234375 C 1.578125 5.191406 1.589844 5.058594 1.601562 5.015625 C 1.621094 4.960938 1.753906 4.898438 1.832031 4.917969 C 4.519531 5.640625 7.230469 6.109375 10.003906 6.382812 C 10.21875 6.402344 10.390625 6.421875 10.578125 6.414062 L 12.027344 4.992188 L 12.375 5.289062 L 11.160156 6.480469 L 12.464844 6.582031 C 12.507812 6.710938 12.507812 6.867188 12.476562 7.023438 L 11.535156 6.960938 C 8.398438 6.753906 5.332031 6.269531 2.269531 5.503906 C 2.554688 6.152344 2.839844 6.703125 3.144531 7.285156 C 5.699219 7.695312 8.222656 7.976562 10.792969 8.105469 L 12.679688 8.203125 L 13.890625 8.230469 L 18.164062 8.230469 L 19.363281 8.199219 C 22.550781 8.105469 25.6875 7.800781 28.875 7.277344 L 29.742188 5.503906 C 26.347656 6.347656 22.988281 6.835938 19.542969 7.019531 C 19.535156 6.863281 19.535156 6.730469 19.539062 6.582031 L 20.847656 6.488281 L 19.621094 5.289062 L 19.96875 4.992188 L 21.445312 6.4375 C 24.414062 6.171875 27.308594 5.691406 30.171875 4.925781 C 30.25 4.90625 30.382812 4.984375 30.410156 5.039062 C 30.4375 5.09375 30.429688 5.199219 30.394531 5.265625 L 29.183594 7.683594 L 28.109375 7.855469 L 27.621094 9.457031 C 27.339844 9.53125 27.082031 9.523438 26.796875 9.539062 L 25.628906 9.609375 L 25.601562 10.402344 C 25.597656 10.515625 25.332031 10.503906 25.207031 10.503906 C 25.171875 10.632812 25.183594 10.824219 25.21875 11 L 26.070312 10.742188 C 26.121094 10.726562 26.242188 10.730469 26.277344 10.761719 C 26.316406 10.789062 26.371094 10.890625 26.371094 10.945312 L 26.386719 11.640625 L 27.300781 11.640625 C 27.441406 11.640625 27.542969 11.761719 27.523438 11.902344 L 27.539062 13.089844 L 31.324219 16.773438 L 28.441406 19.597656 C 28.945312 19.679688 29.351562 19.929688 29.613281 20.351562 C 29.734375 20.609375 29.972656 20.714844 30.273438 20.683594 C 30.863281 20.539062 31.464844 20.632812 31.929688 21.03125 C 31.980469 21.074219 32.007812 21.199219 32 21.253906 C 31.984375 21.320312 31.828125 21.402344 31.757812 21.386719 C 30.816406 21.179688 30.726562 21.992188 29.644531 21.964844 C 29.339844 22.453125 28.859375 22.859375 28.238281 22.863281 L 25.558594 22.882812 C 25.355469 22.882812 25.199219 23.050781 25.1875 23.199219 C 25.171875 23.394531 25.316406 23.566406 25.539062 23.566406 L 25.542969 23.566406 Z M 21.582031 9.296875 L 22.394531 9.273438 L 26.355469 9.113281 L 27.273438 9.054688 L 27.585938 7.9375 C 24.878906 8.316406 22.269531 8.5 19.601562 8.640625 L 18.695312 8.691406 L 13.082031 8.6875 L 11.199219 8.589844 C 8.929688 8.472656 6.710938 8.257812 4.421875 7.9375 L 4.742188 9.0625 L 5.695312 9.109375 L 6.835938 9.167969 L 7.714844 9.199219 L 9.136719 9.253906 L 10.308594 9.289062 L 12.769531 9.34375 L 19.464844 9.34375 L 21.585938 9.292969 Z M 9.074219 9.710938 L 7.542969 9.648438 L 6.835938 9.625 L 6.855469 10.0625 L 9.074219 10.0625 Z M 25.183594 10.0625 L 25.175781 9.617188 L 24.484375 9.644531 L 22.925781 9.710938 L 22.925781 10.0625 Z M 10.285156 11.640625 L 14.632812 11.640625 L 14.632812 9.804688 C 14.632812 9.804688 12.039062 9.785156 12.039062 9.785156 L 9.9375 9.734375 L 9.5625 9.722656 L 9.539062 10.421875 C 9.441406 10.503906 9.265625 10.507812 9.117188 10.5 L 9.117188 10.984375 L 10.03125 10.722656 C 10.410156 10.617188 10.183594 11.503906 10.285156 11.640625 Z M 22.015625 10.742188 L 22.886719 10.996094 L 22.878906 10.488281 C 22.726562 10.511719 22.488281 10.511719 22.476562 10.394531 C 22.449219 10.152344 22.445312 9.972656 22.4375 9.722656 L 22.054688 9.730469 L 20.050781 9.789062 L 17.402344 9.800781 L 17.398438 11.644531 L 21.75 11.636719 L 21.757812 10.929688 C 21.757812 10.886719 21.789062 10.785156 21.824219 10.757812 C 21.859375 10.734375 21.960938 10.722656 22.007812 10.738281 L 22.015625 10.738281 Z M 16.929688 9.800781 L 15.101562 9.800781 L 15.101562 11.652344 L 16.929688 11.652344 Z M 4.835938 24.019531 C 4.632812 24.019531 4.484375 24.164062 4.480469 24.339844 C 4.476562 24.527344 4.632812 24.671875 4.839844 24.671875 L 8.617188 24.667969 L 8.617188 10.507812 L 7.316406 10.5 L 6.800781 17.53125 L 6.753906 18.207031 L 6.453125 22.453125 C 6.941406 22.460938 7.257812 22.785156 7.277344 23.203125 C 7.296875 23.585938 6.988281 24.003906 6.542969 24.007812 L 4.839844 24.019531 Z M 25.476562 24.007812 C 25.007812 24.003906 24.710938 23.566406 24.738281 23.175781 C 24.765625 22.785156 25.097656 22.476562 25.558594 22.4375 L 24.703125 10.511719 L 23.382812 10.507812 L 23.382812 24.667969 L 27.289062 24.667969 C 27.46875 24.667969 27.546875 24.417969 27.527344 24.300781 C 27.511719 24.183594 27.394531 24.027344 27.246094 24.023438 L 25.472656 24.007812 Z M 6.722656 11.625 C 6.75 11.625 6.792969 11.511719 6.769531 11.492188 C 6.753906 11.484375 6.710938 11.453125 6.691406 11.445312 L 6.097656 11.28125 L 6.109375 11.636719 C 6.109375 11.636719 6.722656 11.625 6.722656 11.625 Z M 9.804688 11.628906 L 9.773438 11.277344 L 9.171875 11.453125 C 9.121094 11.46875 9.117188 11.621094 9.136719 11.636719 Z M 22.855469 11.628906 C 22.90625 11.628906 22.867188 11.453125 22.820312 11.441406 L 22.21875 11.28125 C 22.207031 11.425781 22.207031 11.53125 22.226562 11.644531 Z M 25.929688 11.625 C 25.945312 11.492188 25.9375 11.378906 25.902344 11.28125 L 25.289062 11.457031 C 25.261719 11.460938 25.222656 11.546875 25.222656 11.574219 C 25.222656 11.589844 25.273438 11.628906 25.296875 11.628906 Z M 6.65625 13.042969 L 6.726562 12.09375 L 4.9375 12.09375 L 4.929688 13.039062 Z M 9.078125 12.09375 L 9.078125 13.046875 L 22.902344 13.046875 L 22.902344 12.09375 Z M 27.074219 13.035156 L 27.066406 12.089844 L 25.289062 12.097656 L 25.347656 13.046875 Z M 6.261719 18.5 L 6.414062 16.511719 L 6.578125 14.183594 L 6.613281 13.507812 L 4.671875 13.503906 L 3.265625 14.867188 L 5.21875 16.773438 L 3.265625 18.679688 L 3.976562 19.375 C 4.472656 18.449219 5.28125 18.222656 6.261719 18.5 Z M 17.460938 25.664062 C 17.589844 25.378906 18.105469 25.941406 18.839844 25.625 C 19.019531 25.546875 19.171875 25.394531 19.207031 25.199219 C 19.296875 24.652344 19.742188 24.277344 20.300781 24.210938 C 20.925781 24.136719 21.492188 24.519531 21.546875 25.152344 C 21.582031 25.574219 21.253906 25.964844 20.820312 25.964844 C 20.617188 25.964844 20.398438 25.882812 20.300781 25.761719 C 20.167969 25.601562 20.097656 25.414062 20.160156 25.199219 C 20.179688 25.132812 20.339844 25.066406 20.410156 25.089844 C 20.6875 25.179688 20.488281 25.519531 20.796875 25.53125 C 20.871094 25.53125 21.019531 25.46875 21.050781 25.394531 C 21.136719 25.195312 21.09375 25 20.964844 24.859375 C 20.835938 24.71875 20.664062 24.65625 20.460938 24.648438 C 20.078125 24.640625 19.753906 24.851562 19.675781 25.21875 C 19.574219 25.691406 19.226562 25.992188 18.738281 26.144531 C 18.941406 26.183594 19.152344 26.210938 19.378906 26.207031 L 21.9375 26.183594 C 22.496094 26.179688 22.894531 25.613281 22.894531 25.121094 C 22.097656 25.09375 21.515625 24.515625 21.511719 23.769531 C 21.507812 23.027344 22.097656 22.464844 22.886719 22.4375 L 22.898438 20.757812 L 22.890625 13.503906 L 17.324219 13.515625 C 18.824219 13.90625 20.070312 14.691406 20.933594 15.910156 C 21.71875 16.984375 22.058594 18.253906 21.988281 19.582031 C 21.808594 22.433594 19.472656 24.777344 16.542969 25.011719 C 16.179688 25.042969 15.824219 25.039062 15.464844 25.011719 C 12.496094 24.769531 10.152344 22.382812 10.015625 19.492188 C 9.929688 17.671875 10.695312 15.996094 12.09375 14.804688 C 12.835938 14.171875 13.683594 13.796875 14.664062 13.507812 L 9.089844 13.503906 L 9.089844 16.398438 L 9.09375 22.421875 C 9.882812 22.464844 10.496094 23.023438 10.496094 23.769531 C 10.496094 24.515625 9.882812 25.097656 9.097656 25.128906 C 9.148438 25.609375 9.5 26.171875 10.019531 26.175781 L 12.804688 26.207031 C 12.96875 26.207031 13.125 26.175781 13.269531 26.136719 C 12.765625 25.996094 12.441406 25.683594 12.339844 25.210938 C 12.257812 24.84375 11.914062 24.640625 11.546875 24.640625 C 11.34375 24.640625 11.15625 24.730469 11.046875 24.863281 C 10.925781 25.007812 10.867188 25.195312 10.953125 25.371094 C 11.003906 25.476562 11.148438 25.539062 11.246094 25.527344 C 11.535156 25.488281 11.355469 25.046875 11.6875 25.078125 C 11.789062 25.089844 11.90625 25.203125 11.890625 25.3125 C 11.871094 25.460938 11.820312 25.644531 11.726562 25.75 C 11.523438 25.976562 11.199219 26.003906 10.933594 25.910156 C 10.699219 25.824219 10.515625 25.597656 10.46875 25.3125 C 10.417969 24.992188 10.570312 24.65625 10.808594 24.457031 C 11.046875 24.257812 11.367188 24.175781 11.695312 24.207031 C 12.261719 24.261719 12.695312 24.644531 12.792969 25.195312 C 12.828125 25.375 12.972656 25.53125 13.136719 25.605469 C 13.945312 25.972656 14.351562 25.335938 14.5625 25.65625 C 14.824219 26.046875 13.359375 26.652344 12.988281 26.632812 L 12.113281 26.664062 L 13.648438 28.167969 L 15.832031 26.027344 C 15.910156 25.949219 16.050781 25.90625 16.132812 25.984375 L 18.367188 28.167969 L 19.898438 26.667969 C 19.632812 26.644531 19.414062 26.640625 19.152344 26.628906 C 18.515625 26.597656 17.273438 26.089844 17.464844 25.65625 Z M 28.722656 18.664062 L 26.78125 16.769531 L 28.734375 14.867188 L 27.328125 13.503906 L 25.410156 13.503906 C 25.402344 13.78125 25.417969 14.035156 25.4375 14.320312 L 25.746094 18.507812 C 26.382812 18.308594 27 18.355469 27.503906 18.730469 C 27.726562 18.898438 27.863281 19.144531 28.039062 19.363281 L 28.726562 18.667969 Z M 13.804688 16.117188 C 13.878906 16.09375 14.046875 16.117188 14.074219 16.179688 C 14.097656 16.230469 14.117188 16.339844 14.128906 16.421875 C 14.234375 17.359375 15.050781 18.023438 15.980469 18.039062 C 16.910156 18.058594 17.753906 17.417969 17.917969 16.488281 C 18.054688 15.714844 17.714844 14.964844 17.046875 14.523438 C 16.5625 14.207031 16 14.054688 15.398438 14.027344 C 14.421875 13.980469 13.480469 14.332031 12.691406 14.910156 C 11.289062 15.933594 10.417969 17.542969 10.484375 19.308594 C 10.699219 18.859375 10.859375 18.414062 11.140625 18 C 11.777344 17.070312 12.707031 16.4375 13.804688 16.117188 Z M 14.886719 18.875 C 15.996094 19.832031 15.980469 21.429688 14.878906 22.382812 C 15.683594 23.003906 16.621094 23.371094 17.617188 23.382812 C 18.5625 23.394531 19.507812 23.144531 20.195312 22.519531 C 19.429688 22.953125 18.605469 23.117188 17.789062 22.796875 C 16.582031 22.320312 15.988281 21.015625 16.433594 19.851562 C 16.882812 18.683594 18.183594 18.066406 19.425781 18.476562 C 19.789062 16.738281 18.894531 14.730469 17.171875 14.054688 C 17.710938 14.417969 18.148438 14.894531 18.324219 15.519531 C 18.566406 16.367188 18.3125 17.257812 17.644531 17.855469 C 16.976562 18.449219 16.089844 18.652344 15.207031 18.339844 C 14.464844 18.078125 13.863281 17.453125 13.691406 16.601562 C 11.859375 17.242188 10.667969 18.917969 10.832031 20.753906 C 10.835938 20.789062 10.894531 20.851562 10.914062 20.851562 C 10.867188 19.902344 11.367188 19.019531 12.195312 18.59375 C 13.023438 18.167969 14.144531 18.234375 14.890625 18.875 Z M 18.59375 22.507812 C 19.234375 22.542969 19.800781 22.277344 20.273438 21.890625 C 21.027344 21.273438 21.480469 20.382812 21.53125 19.394531 C 21.632812 17.386719 20.5 15.464844 18.664062 14.519531 C 19.789062 15.734375 20.199219 17.296875 19.789062 18.839844 C 19.753906 18.976562 19.589844 19.019531 19.472656 18.964844 C 18.875 18.699219 18.230469 18.722656 17.640625 19.070312 C 17.171875 19.34375 16.816406 19.851562 16.761719 20.457031 C 16.664062 21.523438 17.449219 22.453125 18.59375 22.507812 Z M 2.945312 15.167969 L 1.296875 16.773438 L 2.945312 18.378906 L 4.589844 16.773438 C 4.589844 16.773438 2.945312 15.167969 2.945312 15.167969 Z M 29.054688 15.167969 L 27.410156 16.777344 L 29.058594 18.378906 L 30.703125 16.769531 C 30.703125 16.769531 29.054688 15.167969 29.054688 15.167969 Z M 14.378906 22.523438 C 14.273438 22.429688 14.296875 22.261719 14.40625 22.191406 C 14.996094 21.804688 15.292969 21.152344 15.242188 20.457031 C 15.191406 19.757812 14.734375 19.195312 14.148438 18.933594 C 13.464844 18.628906 12.71875 18.71875 12.144531 19.148438 C 11.628906 19.535156 11.371094 20.109375 11.335938 20.742188 C 11.292969 21.46875 11.539062 22.160156 11.972656 22.753906 C 13.488281 24.835938 17.039062 25.160156 19.132812 23.628906 C 17.328125 24.050781 15.703125 23.710938 14.378906 22.523438 Z M 1.675781 21.367188 C 2.21875 21.699219 2.546875 21.296875 2.675781 21.605469 C 2.867188 22.046875 3.28125 22.421875 3.804688 22.425781 L 5.96875 22.433594 C 5.996094 22.261719 6.015625 22.113281 6.023438 21.953125 L 6.066406 21.335938 C 6.082031 21.09375 6.089844 20.859375 6.089844 20.609375 C 5.714844 20.53125 5.457031 20.316406 5.371094 19.96875 C 5.339844 19.828125 5.441406 19.695312 5.59375 19.675781 C 5.859375 19.640625 5.808594 20.226562 6.140625 20.128906 L 6.246094 18.996094 C 6.027344 18.859375 5.78125 18.824219 5.503906 18.828125 C 4.957031 18.835938 4.421875 19.25 4.351562 19.789062 C 4.621094 20.007812 4.863281 20.253906 4.921875 20.609375 C 5.003906 21.109375 4.714844 21.605469 4.203125 21.730469 C 3.957031 21.789062 3.699219 21.753906 3.496094 21.617188 C 3.3125 21.492188 3.175781 21.285156 3.167969 21.027344 C 3.164062 20.878906 3.285156 20.753906 3.421875 20.765625 C 3.761719 20.796875 3.484375 21.195312 3.84375 21.296875 C 3.996094 21.339844 4.164062 21.296875 4.285156 21.210938 C 4.390625 21.128906 4.46875 20.960938 4.472656 20.804688 C 4.484375 20.441406 4.199219 20.144531 3.832031 20.082031 C 3.398438 20.003906 2.960938 20.226562 2.75 20.609375 C 2.554688 20.96875 2.214844 21.167969 1.773438 21.117188 L 1.144531 21.042969 L 1.679688 21.367188 Z M 30.859375 21.039062 L 30.179688 21.121094 C 29.78125 21.164062 29.460938 20.960938 29.277344 20.636719 C 29.066406 20.265625 28.683594 20.03125 28.246094 20.066406 C 27.832031 20.101562 27.511719 20.441406 27.535156 20.839844 C 27.554688 21.117188 27.785156 21.328125 28.050781 21.3125 C 28.28125 21.300781 28.371094 21.164062 28.398438 20.953125 C 28.414062 20.84375 28.570312 20.738281 28.664062 20.765625 C 28.765625 20.796875 28.835938 20.910156 28.835938 21.027344 C 28.828125 21.296875 28.667969 21.519531 28.429688 21.65625 C 28.171875 21.804688 27.832031 21.78125 27.558594 21.632812 C 27.328125 21.507812 27.136719 21.257812 27.085938 20.964844 C 27.003906 20.488281 27.25 20.058594 27.667969 19.796875 C 27.605469 19.378906 27.289062 19.070312 26.96875 18.9375 C 26.550781 18.765625 26.121094 18.789062 25.773438 19.003906 L 25.867188 20.144531 C 26.242188 20.171875 26.164062 19.542969 26.496094 19.683594 C 26.609375 19.734375 26.660156 19.851562 26.636719 19.972656 C 26.558594 20.335938 26.234375 20.511719 25.902344 20.625 L 26.027344 22.429688 L 28.238281 22.417969 C 28.667969 22.417969 29.074219 22.105469 29.246094 21.75 C 29.539062 21.140625 29.679688 21.761719 30.3125 21.375 Z M 9.085938 24.667969 C 9.65625 24.691406 10.066406 24.242188 10.046875 23.734375 C 10.03125 23.265625 9.621094 22.867188 9.113281 22.890625 Z M 22.890625 22.898438 C 22.371094 22.847656 21.964844 23.296875 21.960938 23.777344 C 21.957031 24.257812 22.367188 24.664062 22.886719 24.671875 Z M 8.617188 27.601562 L 8.617188 25.105469 L 6.257812 25.105469 C 6.257812 25.105469 6.230469 25.546875 6.230469 25.546875 L 6.085938 27.601562 Z M 25.925781 27.59375 L 25.75 25.105469 L 23.382812 25.105469 L 23.390625 27.609375 Z M 16 26.488281 L 13.953125 28.480469 L 16 30.472656 L 18.046875 28.480469 Z M 16 26.488281 "/>
<path style=" stroke:none;fill-rule:nonzero;fill:rgb(0%,0%,0%);fill-opacity:1;" d="M 18.203125 6.792969 L 18.128906 7.285156 C 18.128906 7.414062 18.011719 7.492188 17.875 7.480469 C 17.070312 7.421875 16.40625 6.988281 15.992188 6.285156 C 15.5625 6.988281 14.890625 7.453125 14.046875 7.480469 C 13.957031 7.484375 13.847656 7.402344 13.839844 7.335938 L 13.765625 6.789062 L 13.1875 6.910156 C 13.039062 6.871094 12.984375 6.742188 12.960938 6.59375 C 12.847656 5.878906 13.050781 5.203125 13.597656 4.6875 C 12.816406 4.585938 12.238281 4.128906 11.875 3.480469 C 11.808594 3.367188 11.785156 3.242188 11.816406 3.113281 L 12.402344 2.859375 L 12.128906 2.410156 C 12.105469 2.359375 12.109375 2.203125 12.171875 2.167969 C 12.859375 1.75 13.734375 1.691406 14.523438 2.074219 C 14.398438 1.304688 14.675781 0.625 15.25 0.132812 C 15.308594 0.0859375 15.402344 0.0117188 15.464844 0.0117188 C 15.523438 0.0078125 15.632812 0.0859375 15.675781 0.132812 L 15.980469 0.488281 L 16.292969 0.136719 C 16.332031 0.0898438 16.445312 0.0117188 16.503906 0.0117188 C 16.5625 0.0117188 16.65625 0.0859375 16.714844 0.132812 C 17.277344 0.621094 17.5625 1.289062 17.453125 2.058594 C 18.253906 1.703125 18.933594 1.746094 19.722656 2.113281 C 19.847656 2.171875 19.878906 2.320312 19.816406 2.429688 L 19.574219 2.859375 L 20.144531 3.125 C 20.21875 3.179688 20.136719 3.398438 20.089844 3.480469 C 19.730469 4.125 19.140625 4.601562 18.375 4.691406 C 18.910156 5.210938 19.128906 5.886719 19.007812 6.59375 C 18.992188 6.679688 18.960938 6.785156 18.914062 6.847656 C 18.867188 6.902344 18.707031 6.90625 18.625 6.886719 L 18.203125 6.789062 Z M 16.183594 3.390625 C 16.425781 3.136719 16.597656 2.90625 16.773438 2.636719 C 17.222656 1.941406 17.128906 1.050781 16.503906 0.492188 L 16.125 0.914062 C 16.066406 0.984375 15.90625 0.980469 15.839844 0.910156 L 15.46875 0.496094 C 14.929688 0.972656 14.75 1.726562 15.058594 2.367188 C 15.242188 2.75 15.488281 3.070312 15.78125 3.378906 C 15.820312 3.128906 15.910156 2.8125 15.796875 2.609375 C 15.699219 2.429688 15.585938 2.285156 15.78125 2.117188 C 15.902344 2.019531 16.121094 2.023438 16.226562 2.164062 C 16.339844 2.3125 16.25 2.480469 16.125 2.621094 L 16.179688 3.390625 Z M 15.328125 3.957031 C 15.054688 3.839844 14.84375 3.769531 14.582031 3.722656 C 14.492188 3.707031 14.296875 3.765625 14.207031 3.730469 C 14.054688 3.671875 14.019531 3.515625 14.042969 3.371094 C 14.0625 3.253906 14.191406 3.179688 14.339844 3.164062 C 14.488281 3.148438 14.542969 3.289062 14.667969 3.363281 C 14.871094 3.492188 15.148438 3.542969 15.429688 3.605469 C 14.804688 2.554688 13.882812 1.847656 12.617188 2.410156 L 12.878906 2.835938 C 12.90625 2.875 12.933594 2.996094 12.90625 3.039062 C 12.886719 3.074219 12.816406 3.136719 12.773438 3.15625 L 12.308594 3.34375 C 12.957031 4.539062 14.183594 4.425781 15.328125 3.953125 Z M 19.667969 3.351562 L 19.195312 3.152344 C 19.074219 3.101562 19.027344 2.953125 19.09375 2.835938 L 19.34375 2.40625 C 18.09375 1.839844 17.152344 2.554688 16.542969 3.613281 C 16.824219 3.546875 17.097656 3.484375 17.3125 3.378906 C 17.441406 3.234375 17.535156 3.09375 17.761719 3.179688 C 17.921875 3.242188 17.972656 3.441406 17.902344 3.601562 C 17.808594 3.808594 17.601562 3.699219 17.421875 3.71875 C 17.144531 3.75 16.871094 3.851562 16.601562 3.945312 C 17.796875 4.394531 18.957031 4.574219 19.667969 3.347656 Z M 17.746094 7.042969 L 17.800781 6.566406 C 17.808594 6.511719 17.851562 6.402344 17.898438 6.378906 C 17.933594 6.359375 18.027344 6.355469 18.070312 6.359375 L 18.574219 6.449219 C 18.707031 5.710938 18.328125 5.007812 17.625 4.691406 C 17.269531 4.535156 16.902344 4.441406 16.507812 4.339844 C 16.664062 4.582031 16.808594 4.828125 16.988281 4.972656 C 17.121094 5.082031 17.3125 5.054688 17.296875 5.265625 C 17.285156 5.402344 17.257812 5.5625 17.042969 5.589844 C 16.960938 5.601562 16.816406 5.523438 16.757812 5.460938 C 16.710938 5.410156 16.730469 5.21875 16.695312 5.15625 C 16.558594 4.941406 16.363281 4.710938 16.175781 4.515625 C 16.070312 5.75 16.359375 6.832031 17.746094 7.046875 Z M 15.792969 4.507812 C 15.597656 4.726562 15.382812 4.9375 15.28125 5.191406 C 15.230469 5.316406 15.253906 5.460938 15.136719 5.53125 C 15.039062 5.589844 14.902344 5.605469 14.777344 5.53125 C 14.65625 5.457031 14.664062 5.273438 14.699219 5.148438 C 14.722656 5.0625 14.933594 5.035156 14.996094 4.96875 C 15.164062 4.789062 15.3125 4.582031 15.464844 4.347656 C 15.027344 4.449219 14.644531 4.539062 14.28125 4.71875 C 13.609375 5.054688 13.261719 5.730469 13.402344 6.445312 L 13.996094 6.34375 C 14.214844 6.304688 14.164062 6.921875 14.222656 7.042969 C 15.609375 6.808594 15.894531 5.765625 15.789062 4.503906 L 15.792969 4.503906 Z M 15.792969 4.507812 "/>
</g>
</svg>
